<svg width="10" height="10" viewBox="0 0 10 10" fill="none" xmlns="http://www.w3.org/2000/svg">
<path d="M5.46875 6.28809H0.293945V4.92773H5.43457C5.89486 4.92773 6.26628 4.8571 6.54883 4.71582C6.83138 4.56999 7.03874 4.36719 7.1709 4.10742C7.30306 3.84766 7.36914 3.5446 7.36914 3.19824C7.36914 2.88835 7.30306 2.59896 7.1709 2.33008C7.03874 2.0612 6.83366 1.84245 6.55566 1.67383C6.27767 1.50065 5.91536 1.41406 5.46875 1.41406H3.4043V10H1.68848V0.046875H5.46875C6.23438 0.046875 6.88607 0.181315 7.42383 0.450195C7.96159 0.719076 8.37402 1.09049 8.66113 1.56445C8.94824 2.03385 9.0918 2.57389 9.0918 3.18457C9.0918 3.83626 8.94596 4.39453 8.6543 4.85938C8.36719 5.31966 7.95247 5.67285 7.41016 5.91895C6.8724 6.16504 6.22526 6.28809 5.46875 6.28809ZM5.63281 7.01953V8.37988H0.293945V7.01953H5.63281Z" fill="white"/>
</svg>
